<svg xmlns="http://www.w3.org/2000/svg" width="168" height="187"><path fill="#94c8dd" fill-rule="evenodd" d="M113.8875 45s13.8725 2.3306 22.9887 4.0928c9.1162 1.7622 25.5933 9.493 28.7075 15.6891 3.5106 6.9919 4.4166 16.7123-14.6652 21.2599-17.2131 4.0928-40.2018 1.0232-34.8227 10.4025 5.3791 9.3794 22.8188 14.4954 26.7258 15.348 8.833 1.9328 18.5154 12.847 10.8714 17.7355C146.2755 134.246 131.8368 143 131.8368 143l-2.0384-4.8318s20.2142-9.9478 18.9685-13.7564c-1.2457-3.8086-9.5692-6.8213-15.4013-8.1287-5.6622-1.2506-15.1181-4.8887-18.8552-7.2193-3.737-2.3306-8.4933-10.5162-7.8705-17.906.6228-7.3898 8.097-8.754 12.8533-10.5731 4.7562-1.819 13.8724-1.0232 18.742-1.6485 4.8695-.6253 10.9847-1.478 13.8724-3.297 3.0576-1.9327 4.643-8.3561-3.7937-13.9269-3.6804-2.4443-8.6632-5.2865-16.0241-5.2865-7.3609 0-19.0817-1.7622-19.0817-1.7622z"/><path fill="#cbeaf6" fill-rule="evenodd" d="M25.5845 53.8301V54c0 3.3408.343 6.625.9145 9.8526.0572.2265.1143.453.1143.6795.4002 1.9252.8574 3.7371 1.4862 5.6057C34.9585 91.5417 55.1925 107 79.0845 107c7.3162 0 14.3467-1.4722 20.6912-4.1335C119.038 94.8825 132.5845 75.97 132.5845 54v-.1699C132.4702 24.6121 108.5781 1 79.0845 1s-53.4428 23.6122-53.5 52.8301z"/><path fill="#5aa6c6" fill-rule="evenodd" d="M42.7915 107.178c-.6257 2.6824-2.1613 8.8461-3.5832 12.3846-1.7631 4.3374-17.4038 13.6401-17.4038 13.6401-19.6219 12.2134-12.4556 39.8933 13.3088 37.1538 9.7256-1.0273 13.7069-1.4268 27.357-12.2705 6.1424-4.9081 14.503-6.5632 17.1762-4.3945 2.5594 2.1117 5.2325 3.995 5.7444 7.3052.91 5.8784 1.1944 11.985 4.8344 19.6327 4.7775 10.1588 27.4138 8.1042 37.3669-5.7072 4.7775-6.6203 7.0525-21.3448 5.5169-31.9031-3.2988-23.1712-15.925-49.9949-21.84-61.5805-1.82-3.5384-5.517-5.65-9.4413-5.4218-10.92.6278-33.272 1.8834-45.557 2.5682-4.6637.2854-8.4744 3.7097-9.2706 8.3325-1.4788 9.1315-4.0381 19.3474-4.2088 20.2605z"/><path fill="#015e80" fill-rule="evenodd" d="M84.5845 93.5172l-.672 28.6782-11.76.8046-1.568-30z"/><ellipse cx="79.0845" cy="54" fill="none" stroke="#99d8ef" stroke-width="1.2813" rx="53.5" ry="53"/><circle cx="96.0845" cy="96.5" r="4.5" fill="#015e80" fill-rule="evenodd"/><ellipse cx="79.0845" cy="54" fill="#99d8ef" fill-rule="evenodd" opacity=".34" rx="53.5" ry="53"/><path fill="#fff" fill-rule="evenodd" d="M88.5845 16.0353S100.9759 14.6646 99.4552 29c0 0-2.4783-7.3105-10.8707-12.9647z"/><path fill="#015e80" fill-rule="evenodd" d="M27.3067 159.4338s1.6145 6.0535-2.9407 5.5347c-4.5552-.519-21.6805-9.5703-23.641-22.1385-1.7298-10.7233 13.0314-.5765 15.3955 1.7295.692.6919 7.15 7.3219 7.6689 8.2443zm85.6763-4.7966s5.5434-2.4317 5.6011 2.2056c.0578 4.6373-6.3517 23.0734-18.0158 26.7493-9.9896 3.167-2.1943-13.0636-.2888-15.7216.5775-.7917 6.063-8.1435 6.8137-8.7656zM62.9265 146l34.088-7.0538.57-5.9462-35 7.6368z"/><path fill="#0d506e" fill-rule="evenodd" d="M61.5845 128l36 5.4646L62.387 141z"/><path fill="#5aa6c6" fill-rule="evenodd" d="M57.9372 115l-4.3527 7 4.0625 5.2645L62.9863 129l3.5982-1.6198-.6384-9.1984z"/><path fill="#015e80" fill-rule="evenodd" d="M47.5845 108s5.446 18.9756 11.6453 20.9821c6.1993 2.0065 6.6628.516 8.1112 0 1.4484-.516 1.5643-8.1979.6952-9.6311-.8111-1.4332-4.4032-8.0833-4.4032-8.0833s.927 2.9237 1.7381 6.2488c.869 3.669 1.6223 7.9113.7532 9.3445-1.6222 2.7517-9.5596-1.2039-10.1969-2.8664-.1738-.516-1.0429-2.1212-2.0857-4.185C51.3504 114.994 47.5845 108 47.5845 108z"/><path fill="#0d506e" fill-rule="evenodd" d="M15.5845 98l40.1145 11.9013L58.5845 146l-39.7184-13.6498z"/><path fill="#5aa6c6" fill-rule="evenodd" d="M29.5845 117l7.452 2.25.548 6.75-7.3973-2.5793z"/><path fill="#015e80" fill-rule="evenodd" d="M20.804 97l40.7805 11.7232L56.2503 110 15.5845 97.7545zm42.7805 49.5408L61.1367 109l-5.5522 1.2628L58.6293 147zm36 4.4592s4.1439-11.418 12.3741-15.2816c14.964-7.093 19.6259-.173 19.6259-.173s-.1151-.519-.4029-1.8454c0 0-3.4532-10.553-17.4388-2.941C99.7572 138.3135 99.5845 151 99.5845 151z"/><path fill="#e6b55b" fill-rule="evenodd" d="M101.6898 43.3714C98.7134 41.8286 87.3233 36.743 69.2365 40.8c-.8013.1714-1.6027-.1714-2.0606-.8571-1.6598-2.5143-8.7-8.3429-16.198-7.3143-.8585.1143-1.202 6.2285-1.1447 7.1428l1.1447 6.4572c0 .3428-.0572.6857-.1717 1.0285-.9158 1.8858-4.1783 8.6858-4.6934 12.5143-.0572.5143-.3434.9715-.8013 1.3143-1.4882 1.0857-4.9224 3.6573-6.6967 4.9143-2.0033 1.4286-.6296 8.1143.9158 11.0857C41.82 81.3714 45.8838 85.6 50.1194 87.3714c7.0973 3.0286 17.9151 4.9143 18.602 5.7716.6868.8571.744 2.4 5.0368 2.5714 4.6362.2286 6.8684-1.9429 10.3026-4.4572C87.495 88.743 94.3062 88 95.7945 87.8857h.5151c1.6026.2857 10.875 1.8857 15.8546.2857 5.4375-1.7143 8.8717-10.9143 9.7875-13.7714.1717-.5143.1145-1.0857-.1717-1.6-1.0303-1.7714-3.6632-6-6.0099-7.4286-2.9763-1.7714-1.7743-3.4285-2.6901-6.8571-.3434-1.2 4.9796-2.5143 10.646-5.8857.9158-.5143.8586-2.7429-1.4309-3.1429-2.2894-.4-5.094-3.5428-10.0164-4.2857-5.323-.8571-7.0974-.8-8.8717-1.1429-.5724-.1142-1.202-.4571-1.7171-.6857z"/><path fill="#d3a153" fill-rule="evenodd" d="M83.145 68.8571c0-.4-.1717-.8-.3434-1.2-.4579-.9142-1.0875-2.9714 1.5454-5.2571 2.7474-2.4 6.8684-3.0286 8.5283-3.1429.4579-.0571.9158 0 1.3737.1715 1.717.6285 6.3533 2.4 7.6125 2.6857 1.2592.2857-1.202 4.5714-2.1178 6.1143-.229.3428-.5151.6857-.8585.9143-1.7171 1.2-7.2691 5.0285-9.6158 4.6857-1.5454-.2286-3.2625-.9715-4.4645-1.5429-.973-.4571-1.6026-1.4286-1.6599-2.5143zM71.8694 68.8c0-.4571.1144-.9143.3434-1.3143.4579-.9143 1.0303-2.9714-1.6599-5.2-2.7473-2.2857-6.8684-2.8571-8.5854-3.0286-.5151-.0571-1.0303.0572-1.4882.2286-1.717.6857-6.296 2.5143-7.498 2.8-1.2592.2857 1.2592 4.5143 2.2322 6.0572.229.4.5724.6857.9158.9714 1.7744 1.2 7.3836 4.9143 9.673 4.5143 1.4882-.2286 3.0909-.9715 4.2928-1.5429 1.0303-.5143 1.7171-1.6 1.7744-2.7428V68.8z"/><path fill="#fff" fill-rule="evenodd" d="M48.9746 87.6571c-.2862-.1714-1.946-1.7142-2.0605-2-.6296-1.2571-2.404-4.7428-3.4342-6.5141-1.2592-2.1715-3.6632-5.8286-1.6026-9.0286C45.0825 65.2 55.7858 66.4 58.3615 69.3143c2.0033 2.2286 4.579 2 5.1513 1.8857.744-.1143 4.5217.4 7.8414-1.5429 3.606-2.1142 4.9224-.4571 6.4106-.9714 1.2592-.4571 6.4105 2.6857 7.8986 3.6572.2862.1714.5724.2857.9158.2857l4.7507.3428c.229 0 .4579 0 .744-.0571 1.4882-.4572 7.0402-2.1714 8.1277-3.0286 1.2592-.9714 2.1178-1.8857 6.5822-2 3.9494-.0571 6.3533 3.0286 6.983 3.9429.1144.1714.2861.3428.4578.4571.8586.6286 3.6632 2.4 3.7777 3.8286.4579 6-6.0671 11.3714-6.296 11.4857-1.66.9143-7.8988 4.4-12.7067 4.6286-1.946.1143-6.525.6285-8.6427 1.5428 0 0-4.35 1.6-6.4678 3.3143-.744.6286-5.4947 4.0572-10.5888 2.5143-3.9494-1.1429-4.0638-1.8857-6.2388-3.2571-2.175-1.3715-3.8921-3.6-5.8954-4.6858-1.7744-.9714-10.1882-2.8571-10.4171-3.0285l-1.7745-.9716z"/><path fill-rule="evenodd" d="M85.549 69.2571s3.7776-.9714 5.8381-.5714c2.0606.3429 5.8382-.5143 5.8382-.5143S90.1279 61.6 85.549 69.2571z"/><path fill="#b07c2d" fill-rule="evenodd" d="M53.4963 39.1429s-.4006-1.3143-.8013-2.6858c-.4006-1.3142 3.377-.8571 5.0369.4572 1.6598 1.3143 5.0368 2.7428 5.1513 3.7714.0572 1.0286-1.3165 2.8-2.2323 2.2286-.9157-.5714-2.8618-.7429-2.8618-.7429v1.3143l-1.3164.2286-.8586 1.4857zm66.9099 11.8857c-1.6026-.5143-5.3803-1.8286-11.5618-3.9429 0 0-2.2895-.6286-3.606-.1143-1.3164.5143 1.2593 1.9429 2.1178 1.8857h.9158l-.8013 1.8286 3.0335.3429-1.5454 1.0285 2.4612 2.6286s4.2356.3429 9.0434-2.9143c.3435-.1714.2862-.6285-.0572-.7428z"/><ellipse cx="51.245" cy="88.3173" fill="#fff" fill-rule="evenodd" rx="3.7759" ry="4.6305" transform="rotate(-31.172)"/><ellipse cx="35.0771" cy="78.4617" fill="#fff" fill-rule="evenodd" rx="4.4624" ry="3.3729" transform="rotate(-31.172)"/><path fill="#f9f0b5" fill-rule="evenodd" d="M86.0069 73.6s-6.0671-9.3143-10.5888-8.0571c-4.5218 1.2571-5.2658 4.5714-6.2961 5.5428-.973.9143-6.0099 1.7143-7.3263 3.1429-1.3165 1.4285-2.8046 2.5714-1.7171 5.0285 1.0875 2.4572 8.7572 5.7715 9.3868 8.1143.458 1.6572 8.2994 3.8857 13.8513-.2857 3.377-2.5143 2.2895-2.6286 4.6362-3.3714 2.404-.7429 4.2928-2.6857 4.7507-4.9143.4579-2.2286-.8586-4-6.6967-5.2z"/><path fill="#fdf9d5" fill-rule="evenodd" d="M78.795 77.0286s.0573-1.7715-1.0302-3.6c-1.0875-1.8286-2.404-2.5143-3.4915-2.1715-2.8618.9143-3.3197 1.6572-4.0638 3.0858-.3434.6285-.744 2.6857-.744 2.6857z"/><path fill-rule="evenodd" stroke="#000" stroke-width=".4725" d="M67.1187 68.8571s-2.6901-.7428-4.1783-.5714c-1.5454.1714-3.5487-1.0857-3.5487-1.0857s4.6935-4.4571 7.727 1.6571z"/><path fill="#ef6ca8" fill-rule="evenodd" d="M83.8319 81.0286s.0572-4.0572.5723-4.7429c.8014-1.1428 1.431-1.0286 2.0033-.8571.5724.1714 1.1448.9143 1.0303 1.4857-.0572.5714 0 2.1714 0 2.1714s-1.202.3429-1.4882.4c-.229.0572-2.1177 1.5429-2.1177 1.5429z"/><path fill="#ee374a" fill-rule="evenodd" d="M85.9496 79.4857s.229-.4571.3435-.8c.0572-.2286 0-.4 0-.5143-.0573-1.1428-.229-.7428-.229-.7428l-.9158 2.6285z"/><path fill-rule="evenodd" d="M69.6371 83.4286c-.5151-.5143-1.7743-4.8572-8.6427-4.6857l2.8618.5714c3.606.8571 4.8651 4.1714 5.9526 5.2 1.66 1.5428 2.9764.9714 3.3198-.0572.229-.6285.4579-.2857.6868-.0571.4007.4571 1.1448.9143 2.1178 1.2571.5724.2286 2.3467.7429 4.7506-.8571 1.8316-1.2 3.3198-3.4857 4.6362-4.7429 1.1448-1.0857 6.0099-1.0285 6.0099-1.0285s-4.6362-.6286-6.4105.8571c-1.202 1.0286-2.8046 2.8572-4.6362 4.3429-1.202 1.0285-3.4915 1.7143-5.6665-.3429-.229-.2286-.973-1.4286-1.0875-2.4 0-.1143.1717-.1714.1717-.1714s.458-2.1714.8586-2.3429c.4007-.1714 1.2592 0 2.3467-.4571.744-.3429 1.4882-1.1429 1.946-1.6572.1718-.2285.1145-.5142-.1716-.6285-1.3165-.5715-5.1514-1.8286-9.1007.2857-.1717.1143-.2862.2857-.229.4571.1145.3429.3435.9143.973 1.3143.6297.4 1.202.5143 1.5455.5714.1717 0 .2862.1715.3434.3429.1145.5143.2862 1.5429.5724 2.0571.0572.0572.0572.1143.0572.1715 0 .9143 0 3.4857-.973 3.4285 0 0-.5724 0-1.2592-.5142-.6869-.5143-.973-.9143-.973-.9143z"/><path fill="#5aa6c6" fill-rule="evenodd" d="M102.5713 109l7.0132-10.3178L97.1852 91l-3.5347 1.2336-1.066 4.3739L95.1654 103z"/><path fill="#015e80" fill-rule="evenodd" d="M108.227 114s-16.4598-10.508-16.6295-16.904c-.1696-6.3962 1.3575-6.4533 2.206-7.7097.905-1.2564 8.2016.8566 9.3328 1.9988 1.1313 1.1992 6.4482 6.4532 6.4482 6.4532s-2.4888-1.7132-5.4866-3.4265c-3.224-1.8846-7.0703-3.7691-8.654-3.3694-3.0545.7424-1.4707 9.3658-.0567 10.4509.396.3426 1.7535 1.5419 3.3938 3.141 3.8463 3.8262 9.446 9.3657 9.446 9.3657z"/></svg>